DataType=double
version=3
OpenSimVersion=4.5-2024-01-10-34fd6af
endheader
time	ground_force_1_vx	ground_force_1_vy	ground_force_1_vz	ground_force_1_px	ground_force_1_py	ground_force_1_pz	ground_moment_1_mx	ground_moment_1_my	ground_moment_1_mz	ground_force_2_vx	ground_force_2_vy	ground_force_2_vz	ground_force_2_px	ground_force_2_py	ground_force_2_pz	ground_moment_2_mx	ground_moment_2_my	ground_moment_2_mz
0.67	2.07E-76	3.40E-75	-3.75E-77	0.819550251	0	0.240496534	-1.12E-76	6.37E-77	-9.51E-77	-34.09265958	763.1411039	-61.71457475	0.820157636	0	0.721691933	103.5061617	23.29186943	192.1783064
0.68	9.37E-73	1.55E-71	-1.69E-73	0.819550251	0	0.240496534	-5.08E-73	2.87E-73	-4.21E-73	-30.54337865	765.2743507	-61.09838704	0.820157636	0	0.721691933	103.7144405	22.07921797	186.8597205
0.69	4.02E-69	7.07E-68	-7.75E-70	0.819550251	0	0.240496534	-2.30E-69	1.28E-69	-1.94E-69	-26.62944698	766.2907513	-60.54847352	0.820157636	0	0.721691933	103.754025	20.83903513	181.1784418
0.7	2.15E-65	3.23E-64	-3.62E-66	0.819550251	0	0.240496534	-1.07E-65	5.79E-66	-8.99E-66	-22.45611965	766.2054127	-60.10102555	0.820157636	0	0.721691933	103.6187859	19.58695641	175.1948306
0.71	8.93E-62	1.47E-60	-1.62E-62	0.819550251	0	0.240496534	-4.89E-62	2.51E-62	-4.05E-62	-18.07662855	765.1631078	-59.74322724	0.820157636	0	0.721691933	103.3252554	18.33087091	168.9897653
0.72	4.18E-58	6.74E-57	-7.22E-59	0.819550251	0	0.240496534	-2.21E-58	1.26E-58	-1.86E-58	-13.56229174	763.4788654	-59.50035141	0.820157636	0	0.721691933	102.9099686	17.07770253	162.6977877
0.73	1.94E-54	3.07E-53	-3.28E-55	0.819550251	0	0.240496534	-9.99E-55	5.35E-55	-8.48E-55	-8.987150278	761.5580264	-59.36745365	0.820157636	0	0.721691933	102.4233641	15.83238175	156.4555189
0.74	8.77E-51	1.40E-49	-1.58E-51	0.819550251	0	0.240496534	-4.58E-51	2.46E-51	-3.88E-51	-4.429624276	759.816421	-59.34585229	0.820157636	0	0.721691933	101.9173729	14.60417646	150.4108891
0.75	3.83E-47	6.42E-46	-7.10E-48	0.819550251	0	0.240496534	-2.11E-47	1.17E-47	-1.78E-47	-0.008170242	758.6044442	-59.4838328	0.820157636	0	0.721691933	101.4328891	13.41120655	144.6739392
0.76	1.77E-43	2.93E-42	-3.18E-44	0.819550251	0	0.240496534	-9.49E-44	4.90E-44	-8.00E-44	4.16776306	758.0899822	-59.79724625	0.820157636	0	0.721691933	100.9893932	12.27246988	139.3263605
0.77	8.72E-40	1.34E-38	-1.49E-40	0.819550251	0	0.240496534	-4.41E-40	2.48E-40	-3.72E-40	7.946919756	758.2411077	-60.34146502	0.820157636	0	0.721691933	100.5764333	11.21295655	134.4079992
0.78	3.57E-36	6.11E-35	-6.70E-37	0.819550251	0	0.240496534	-1.99E-36	1.09E-36	-1.68E-36	11.2177888	758.8426184	-61.1389457	0.820157636	0	0.721691933	100.1620372	10.25183985	129.9116436
0.79	1.67E-32	2.79E-31	-3.09E-33	0.819550251	0	0.240496534	-9.11E-33	5.01E-33	-7.74E-33	13.89588325	759.5998107	-62.15654191	0.820157636	0	0.721691933	99.70632311	9.402285515	125.8161853
0.8	7.45E-29	1.27E-27	-1.39E-29	0.819550251	0	0.240496534	-4.12E-29	2.13E-29	-3.48E-29	15.94547446	760.2223713	-63.36205511	0.820157636	0	0.721691933	99.17565447	8.673291726	122.0568475
0.81	3.39E-25	5.81E-24	-6.58E-26	0.819550251	0	0.240496534	-1.89E-25	1.13E-25	-1.61E-25	17.40449977	760.4296331	-64.66906407	0.820157636	0	0.721691933	98.54696421	8.05912372	118.5640126
0.82	1.67E-21	2.65E-20	-2.87E-22	0.819550251	0	0.240496534	-8.74E-22	4.76E-22	-7.35E-22	18.369683	759.9749153	-66.00016104	0.820157636	0	0.721691933	97.80507847	7.546931937	115.2479626
0.83	6.61E-18	1.21E-16	-1.29E-18	0.819550251	0	0.240496534	-3.95E-18	2.05E-18	-3.35E-18	19.01696554	758.6100152	-67.27512332	0.820157636	0	0.721691933	96.94302672	7.110350279	112.0324131
0.84	1.82E-14	2.73E-13	-3.08E-15	0.819550251	0	0.240496534	-9.33E-15	4.88E-15	-8.88E-15	19.5506105	756.105274	-68.39594163	0.820157636	0	0.721691933	95.95771023	6.719747151	108.8022104
0.85	19.76008113	19.54075613	-3.398777731	0.819550251	0	0.240496534	-3.277422468	5.911322355	5.376656752	20.19842729	752.2038875	-69.26850842	0.820157636	0	0.721691933	94.84321004	6.340675927	105.4430146
0.86	25.63729819	44.24567643	-6.862335023	0.819550251	0	0.240496534	-6.594562651	8.094347577	15.46586996	21.14724812	746.5728732	-69.77201424	0.820157636	0	0.721691933	93.58061935	5.936104692	101.8625612
0.87	30.44606786	78.08266596	-10.61990476	0.819550251	0	0.240496534	-11.09798407	10.21216143	29.29256821	22.52717743	738.7270282	-69.77753591	0.820157636	0	0.721691933	92.12632937	5.474261391	97.96554353
0.88	32.42908196	120.6650183	-14.02785977	0.819550251	0	0.240496534	-16.72586271	11.7720974	46.7080178	24.37707316	727.9963085	-69.1537633	0.820157636	0	0.721691933	90.40728426	4.933789347	93.68928302
0.89	29.84397463	170.3070885	-16.28163819	0.819550251	0	0.240496534	-23.22487959	12.24052142	67.0784664	26.65144912	713.5491607	-67.78981129	0.820157636	0	0.721691933	88.32443551	4.305659566	88.958521
0.9	22.19404304	224.0516105	-16.52352925	0.819550251	0	0.240496534	-30.15563556	11.17488507	89.22752631	29.20585689	694.485364	-65.58008053	0.820157636	0	0.721691933	85.76208824	3.59773588	83.74038797
0.91	10.90402986	277.6434578	-13.69062852	0.819550251	0	0.240496534	-36.9053862	8.374796469	111.3498121	31.84491964	669.9232514	-62.46632491	0.820157636	0	0.721691933	82.6027959	2.834629476	78.00918282
0.92	-1.524691426	326.3688228	-7.259237889	0.819550251	0	0.240496534	-42.87344545	4.078396396	131.2792924	34.34285718	639.1346355	-58.49137665	0.820157636	0	0.721691933	78.74551738	2.056481046	71.77760101
0.93	-13.23873664	367.4819901	1.8460976	0.819550251	0	0.240496534	-47.74021139	-1.100504107	147.5756564	36.44605723	601.7573593	-53.7519414	0.820157636	0	0.721691933	74.12661849	1.309285659	65.10407074
0.94	-23.28386526	400.9866068	12.42365172	0.819550251	0	0.240496534	-51.54233058	-6.513280711	160.0722495	37.88488615	557.9194431	-48.41318193	0.820157636	0	0.721691933	68.73667053	0.644444283	58.09520298
0.95	-31.19503845	428.7159778	23.30356076	0.819550251	0	0.240496534	-54.57649485	-11.64060003	169.4671095	38.39398878	508.2208745	-42.70008964	0.820157636	0	0.721691933	62.62817089	0.110962045	50.9170187
0.96	-37.00321033	453.2522058	33.40412277	0.819550251	0	0.240496534	-57.22697736	-16.08959758	176.8294407	37.74211734	453.7404824	-36.81052317	0.820157636	0	0.721691933	55.91546836	-0.256722807	43.7395374
0.97	-40.87242105	476.7946583	42.00382141	0.819550251	0	0.240496534	-59.82777704	-19.60038318	183.1202395	35.76161917	395.9198321	-30.94633626	0.820157636	0	0.721691933	48.76506232	-0.43548593	36.73940953
0.98	-43.08972409	500.7474253	48.54045812	0.819550251	0	0.240496534	-62.59296232	-22.03905674	188.8860928	32.41704579	336.5580967	-25.29858451	0.820157636	0	0.721691933	41.39478439	-0.41592101	30.07490489
0.99	-43.77310543	525.6380461	52.97631125	0.819550251	0	0.240496534	-65.5977583	-23.42655088	194.3753304	27.77936899	277.7349396	-20.05915476	0.820157636	0	0.721691933	34.0647172	-0.206786793	23.9111953
1	-43.18093367	551.5188098	55.58434838	0.819550251	0	0.240496534	-68.82802827	-23.91059605	199.6134208	22.14672745	221.7093082	-15.43169488	0.820157636	0	0.721691933	27.05714295	0.160395178	18.38481048
1.01	-41.47719535	578.1460303	56.80261643	0.819550251	0	0.240496534	-72.21250906	-23.71606789	204.5894061	16.01349283	170.608205	-11.55483008	0.820157636	0	0.721691933	20.64253598	0.619831074	13.59480715
1.02	-38.92315964	605.0901698	57.24924674	0.819550251	0	0.240496534	-75.64510306	-23.09267705	209.2315795	10.04875639	126.0685687	-8.523274265	0.820157636	0	0.721691933	15.03160146	1.092160992	9.580558286
1.03	-35.75716967	631.7660141	57.38502886	0.819550251	0	0.240496534	-79.00164254	-22.261532	213.4510191	4.819074263	88.943387	-6.278762427	0.820157636	0	0.721691933	10.34528372	1.50346333	6.308266005
1.04	-32.26534464	657.4023536	57.69874458	0.819550251	0	0.240496534	-82.14102106	-21.4257029	217.0701889	0.639460331	59.34357676	-4.695696154	0.820157636	0	0.721691933	6.610711931	1.815598333	3.720994029
1.05	-28.78320748	681.137784	58.57057656	0.819550251	0	0.240496534	-84.92611646	-20.73675295	219.9140601	-2.428910295	36.82581888	-3.641433093	0.820157636	0	0.721691933	3.77941787	2.024625132	1.742604056
1.06	-25.5124679	702.3350544	60.07389336	0.819550251	0	0.240496534	-87.26247722	-20.25510743	221.8425142	-4.493575816	20.64344397	-2.97752754	0.820157636	0	0.721691933	1.754336111	2.144798555	0.301658977
1.07	-22.61458352	720.705049	62.10087522	0.819550251	0	0.240496534	-89.11477186	-19.95257917	222.8177252	-2.37E-15	6.42E-14	-7.58E-15	0.820157636	0	0.721691933	2.00E-15	9.23E-16	-1.15E-14
1.08	-20.00878363	736.2680446	64.3208606	0.819550251	0	0.240496534	-90.49880552	-19.73733211	222.8758506	-5.49E-19	1.44E-17	-1.66E-18	0.820157636	0	0.721691933	4.41E-19	2.20E-19	-2.55E-18
1.09	-17.65067114	749.0933578	66.35474773	0.819550251	0	0.240496534	-91.44566267	-19.50000036	222.0394721	-1.12E-22	3.11E-21	-3.71E-22	0.820157636	0	0.721691933	9.74E-23	4.71E-23	-5.58E-22
1.1	-15.41622912	759.174741	67.97973441	0.819550251	0	0.240496534	-91.97249189	-19.16452984	220.3476928	-2.54E-26	6.88E-25	-8.13E-26	0.820157636	0	0.721691933	2.17E-26	1.00E-26	-1.22E-25
1.11	-13.27785343	766.4058003	69.1030522	0.819550251	0	0.240496534	-92.08485621	-18.70160999	217.7917066	-5.42E-30	1.51E-28	-1.76E-29	0.820157636	0	0.721691933	4.68E-30	2.38E-30	-2.68E-29
1.12	-11.17215478	770.732775	69.84052534	0.819550251	0	0.240496534	-91.785168	-18.13137627	214.4262641	-1.27E-33	3.30E-32	-3.86E-33	0.820157636	0	0.721691933	1.03E-33	4.88E-34	-5.87E-33
1.13	-9.086846154	772.1278323	70.37275024	0.819550251	0	0.240496534	-91.08301411	-17.49776431	210.2931028	-2.62E-37	7.24E-36	-8.43E-37	0.820157636	0	0.721691933	2.24E-37	9.99E-38	-1.28E-36
1.14	-7.053076282	770.707944	70.83023402	0.819550251	0	0.240496534	-90.00163834	-16.84518517	205.5007645	-5.63E-41	1.58E-39	-1.85E-40	0.820157636	0	0.721691933	4.95E-41	2.40E-41	-2.82E-40
1.15	-5.123006373	766.7530999	71.27860703	0.819550251	0	0.240496534	-88.58986678	-16.20583997	200.1718935	-1.31E-44	3.46E-43	-4.04E-44	0.820157636	0	0.721691933	1.09E-44	4.95E-45	-6.17E-44
1.16	-3.3647241	760.7640325	71.65275425	0.819550251	0	0.240496534	-86.92411847	-15.58530713	194.4784311	-2.72E-48	7.62E-47	-8.85E-48	0.820157636	0	0.721691933	2.35E-48	1.17E-48	-1.35E-47
1.17	-1.784010461	753.3713851	71.85382229	0.819550251	0	0.240496534	-85.0997607	-14.9726987	188.6032891	-5.95E-52	1.67E-50	-1.96E-51	0.820157636	0	0.721691933	5.20E-52	2.32E-52	-2.96E-51
